<?xml version="1.0" encoding="UTF-8" standalone="no"?>
<!-- Created with Inkscape (http://www.inkscape.org/) -->

<svg
   xmlns:dc="http://purl.org/dc/elements/1.1/"
   xmlns:cc="http://creativecommons.org/ns#"
   xmlns:rdf="http://www.w3.org/1999/02/22-rdf-syntax-ns#"
   xmlns:svg="http://www.w3.org/2000/svg"
   xmlns="http://www.w3.org/2000/svg"
   xmlns:sodipodi="http://sodipodi.sourceforge.net/DTD/sodipodi-0.dtd"
   xmlns:inkscape="http://www.inkscape.org/namespaces/inkscape"
   width="130.64401"
   height="99.293716"
   viewBox="0 0 34.566226 26.271463"
   version="1.1"
   id="svg547"
   inkscape:version="0.92.0 r15299"
   sodipodi:docname="adani.svg">
  <defs
     id="defs541">
    <linearGradient
       id="linearGradient214"
       spreadMethod="pad"
       gradientTransform="matrix(65.736919,-5.6356424,5.6356424,65.736919,-9.6925768,279.44576)"
       gradientUnits="userSpaceOnUse"
       y2="0"
       x2="1"
       y1="0"
       x1="0">
      <stop
         id="stop198"
         offset="0"
         style="stop-opacity:1;stop-color:#36b665" />
      <stop
         id="stop200"
         offset="0.29545339"
         style="stop-opacity:1;stop-color:#316abc" />
      <stop
         id="stop202"
         offset="0.35"
         style="stop-opacity:1;stop-color:#316abc" />
      <stop
         id="stop204"
         offset="0.60760139"
         style="stop-opacity:1;stop-color:#891c8e" />
      <stop
         id="stop206"
         offset="0.65"
         style="stop-opacity:1;stop-color:#891c8e" />
      <stop
         id="stop208"
         offset="0.68070753"
         style="stop-opacity:1;stop-color:#891c8e" />
      <stop
         id="stop210"
         offset="0.9"
         style="stop-opacity:1;stop-color:#f03c21" />
      <stop
         id="stop212"
         offset="1"
         style="stop-opacity:1;stop-color:#f03c21" />
    </linearGradient>
  </defs>
  <sodipodi:namedview
     id="base"
     pagecolor="#ffffff"
     bordercolor="#666666"
     borderopacity="1.0"
     inkscape:pageopacity="0.0"
     inkscape:pageshadow="2"
     inkscape:zoom="5.4225235"
     inkscape:cx="64.822"
     inkscape:cy="49.14686"
     inkscape:document-units="mm"
     inkscape:current-layer="layer1"
     showgrid="false"
     fit-margin-top="0"
     fit-margin-left="0"
     fit-margin-right="0"
     fit-margin-bottom="0"
     units="px"
     inkscape:window-width="1280"
     inkscape:window-height="744"
     inkscape:window-x="-4"
     inkscape:window-y="-4"
     inkscape:window-maximized="1" />
  <metadata
     id="metadata544">
    <rdf:RDF>
      <cc:Work
         rdf:about="">
        <dc:format>image/svg+xml</dc:format>
        <dc:type
           rdf:resource="http://purl.org/dc/dcmitype/StillImage" />
        <dc:title></dc:title>
      </cc:Work>
    </rdf:RDF>
  </metadata>
  <g
     inkscape:label="Layer 1"
     inkscape:groupmode="layer"
     id="layer1"
     transform="translate(4.6776067,-135.5653)">
    <g
       id="g631"
       transform="translate(0.1322933,-0.13230065)">
      <path
         d="M 24.546823,150.64211 H 0.51771329 c -0.0864,0 -0.1566299,0.0702 -0.1566299,0.15663 0,0.0868 0.0702,0.15699 0.1566299,0.15699 H 24.546823 c 0.0864,0 0.156631,-0.0702 0.156631,-0.15699 0,-0.0864 -0.0702,-0.15663 -0.156631,-0.15663"
         style="fill:#4f4c4d;fill-opacity:1;fill-rule:nonzero;stroke:none;stroke-width:0.35277778"
         id="path112"
         inkscape:connector-curvature="0" />
      <path
         d="m 3.4545533,155.07695 v 0.82374 c 0,0.0649 -0.023601,0.1217 -0.0702,0.17039 -0.0469,0.0487 -0.1023099,0.073 -0.1668698,0.073 -0.0642,0 -0.11924,-0.0243 -0.1643901,-0.073 -0.0452,-0.0487 -0.0681,-0.10548 -0.0681,-0.17039 v -2.54635 c 0,-0.0945 0.0296,-0.17498 0.0885,-0.2413 0.0593,-0.0663 0.14464,-0.0995 0.2568202,-0.0995 h 0.8904099 c 0.1414701,0 0.2751699,0.0236 0.4007599,0.0706 0.1252302,0.0473 0.2360102,0.11536 0.33196,0.2039 0.096,0.0885 0.1711,0.19615 0.2257801,0.32315 0.0547,0.127 0.0818,0.27023 0.0818,0.42968 0,0.16228 -0.0264,0.30762 -0.0797,0.43604 -0.0533,0.12841 -0.1280599,0.23706 -0.2243701,0.32561 -0.096,0.0885 -0.2098998,0.15628 -0.3418398,0.20355 -0.13159,0.0473 -0.2758702,0.0709 -0.4325102,0.0709 z m 0.7196701,-0.46955 c 0.2162501,0 0.3718201,-0.0522 0.46672,-0.15698 0.0945,-0.10478 0.1421699,-0.23989 0.1421699,-0.40534 0,-0.16828 -0.0476,-0.30375 -0.1421699,-0.40746 -0.0949,-0.10301 -0.2444699,-0.15487 -0.4487301,-0.15487 h -0.73766 v 1.12465 z"
         style="fill:#4f4c4d;fill-opacity:1;fill-rule:nonzero;stroke:none;stroke-width:0.35277778"
         id="path116"
         inkscape:connector-curvature="0" />
      <path
         d="m 6.7114733,153.7396 c 0.14217,0 0.27376,0.0215 0.39511,0.0642 0.12136,0.0427 0.22684,0.10336 0.31715,0.18168 0.0903,0.0783 0.16263,0.1718 0.21766,0.28116 0.0547,0.10901 0.0864,0.23001 0.0953,0.36301 0.003,0.0445 0.005,0.0938 0.007,0.14816 10e-4,0.055 0.002,0.11007 0.002,0.16616 0,0.0561 -6.88e-4,0.11219 -0.002,0.16828 -0.002,0.0561 -0.004,0.10618 -0.007,0.15063 -0.009,0.12983 -0.0406,0.25012 -0.0953,0.3609 -0.055,0.11077 -0.12735,0.20672 -0.21766,0.28786 -0.0903,0.0811 -0.19579,0.14464 -0.31715,0.1905 -0.12135,0.0455 -0.25294,0.0684 -0.39511,0.0684 -0.13899,0 -0.26917,-0.0229 -0.39052,-0.0684 -0.12136,-0.0459 -0.22719,-0.10936 -0.31715,-0.1905 -0.0903,-0.0811 -0.16369,-0.17709 -0.21978,-0.28786 -0.0561,-0.11078 -0.0889,-0.23107 -0.0977,-0.3609 -0.003,-0.0444 -0.005,-0.0945 -0.007,-0.15063 -0.001,-0.0561 -0.002,-0.11219 -0.002,-0.16828 0,-0.0561 6.88e-4,-0.11112 0.002,-0.16616 0.002,-0.0543 0.004,-0.10371 0.007,-0.14816 0.009,-0.133 0.0416,-0.254 0.0977,-0.36301 0.0561,-0.10936 0.12947,-0.20285 0.21978,-0.28116 0.09,-0.0783 0.19579,-0.139 0.31715,-0.18168 0.12135,-0.0427 0.25153,-0.0642 0.39052,-0.0642 m -0.002,0.45156 c -0.16545,0 -0.29598,0.0466 -0.39193,0.1397 -0.096,0.0928 -0.14993,0.21307 -0.16157,0.36089 -0.003,0.0353 -0.005,0.0751 -0.007,0.11959 -10e-4,0.0441 -0.002,0.09 -0.002,0.13723 0,0.0473 6.88e-4,0.0938 0.002,0.13935 0.001,0.0459 0.004,0.085 0.007,0.11747 0.0148,0.15628 0.0709,0.28117 0.16827,0.3743 0.0974,0.0928 0.22578,0.13935 0.38523,0.13935 0.15946,0 0.28858,-0.0466 0.38735,-0.13935 0.0988,-0.0931 0.15558,-0.21802 0.17039,-0.3743 0.003,-0.0325 0.005,-0.0716 0.005,-0.11747 v -0.13935 c 0,-0.0473 -6.88e-4,-0.0931 -0.002,-0.13723 -0.002,-0.0444 -0.002,-0.0843 -0.002,-0.11959 -0.009,-0.14782 -0.0617,-0.26811 -0.1591,-0.36089 -0.0977,-0.0931 -0.23036,-0.1397 -0.39864,-0.1397"
         style="fill:#4f4c4d;fill-opacity:1;fill-rule:nonzero;stroke:none;stroke-width:0.35277778"
         id="path120"
         inkscape:connector-curvature="0" />
      <path
         d="m 9.4635233,153.78832 c 0.0677,0.0208 0.11501,0.0494 0.14182,0.0864 0.0265,0.037 0.0399,0.0818 0.0399,0.13511 0,0.0501 -0.018,0.0995 -0.0533,0.14817 -0.0353,0.0487 -0.0914,0.073 -0.16827,0.073 -0.0413,0 -0.0885,-0.007 -0.14182,-0.0219 -0.0529,-0.0148 -0.11642,-0.0208 -0.19015,-0.018 -0.10336,0.003 -0.18027,0.0318 -0.23036,0.0864 -0.0501,0.0547 -0.0751,0.14394 -0.0751,0.26776 v 1.36419 c 0,0.0677 -0.0229,0.12383 -0.0688,0.16828 -0.0459,0.0441 -0.10266,0.0663 -0.1704,0.0663 -0.0621,0 -0.11606,-0.0222 -0.16157,-0.0663 -0.0459,-0.0445 -0.0688,-0.10054 -0.0688,-0.16828 v -1.43933 c 0,-0.22437 0.0635,-0.40217 0.1905,-0.5334 0.12665,-0.13159 0.31115,-0.1972 0.55351,-0.1972 0.0765,0 0.15099,0.004 0.22366,0.0134 0.0723,0.009 0.13194,0.0205 0.17921,0.0353"
         style="fill:#4f4c4d;fill-opacity:1;fill-rule:nonzero;stroke:none;stroke-width:0.35277778"
         id="path124"
         inkscape:connector-curvature="0" />
      <path
         d="m 11.230413,156.0866 c -0.0681,0.0296 -0.14605,0.0508 -0.2346,0.0642 -0.0885,0.0134 -0.17568,0.0198 -0.26141,0.0198 -0.127,0 -0.236,-0.0205 -0.32773,-0.0617 -0.0914,-0.0413 -0.16757,-0.0977 -0.22789,-0.16827 -0.0607,-0.0709 -0.10583,-0.15522 -0.13511,-0.25259 -0.0296,-0.0974 -0.0445,-0.20214 -0.0445,-0.31432 v -1.85103 c 0,-0.0677 0.0222,-0.12453 0.0667,-0.17039 0.0441,-0.0459 0.10019,-0.0688 0.16828,-0.0688 0.0649,0 0.12029,0.0229 0.1658,0.0688 0.0459,0.0459 0.0688,0.10266 0.0688,0.17039 v 0.33655 h 0.61101 c 0.0593,0 0.11078,0.0201 0.15523,0.0596 0.0441,0.0402 0.0663,0.0896 0.0663,0.14852 0,0.0593 -0.0222,0.10866 -0.0663,0.14852 -0.0445,0.0399 -0.096,0.0596 -0.15523,0.0596 h -0.61101 v 1.10278 c 0,0.11219 0.025,0.19826 0.0751,0.25894 0.0505,0.0607 0.13018,0.0907 0.23919,0.0907 0.0593,0 0.1143,-0.007 0.16616,-0.0222 0.0515,-0.0145 0.10265,-0.0293 0.15275,-0.0441 0.0441,-0.0116 0.0847,-0.0134 0.12171,-0.005 0.037,0.009 0.067,0.0229 0.0907,0.0423 0.0236,0.019 0.0423,0.0441 0.0554,0.0751 0.0134,0.031 0.0201,0.0628 0.0201,0.0952 0,0.0441 -0.012,0.0857 -0.0353,0.12383 -0.024,0.0385 -0.0653,0.0695 -0.12418,0.0931"
         style="fill:#4f4c4d;fill-opacity:1;fill-rule:nonzero;stroke:none;stroke-width:0.35277778"
         id="path128"
         inkscape:connector-curvature="0" />
      <path
         d="m 13.462223,155.44006 c 0,0.11218 -0.0222,0.21343 -0.0663,0.30339 -0.0445,0.09 -0.10619,0.16686 -0.18627,0.23036 -0.0794,0.0635 -0.17392,0.11219 -0.28328,0.14605 -0.10936,0.0339 -0.22719,0.0508 -0.35419,0.0508 -0.18591,0 -0.34537,-0.0229 -0.47836,-0.0684 -0.13265,-0.0459 -0.24483,-0.10724 -0.33655,-0.18379 -0.0441,-0.0385 -0.0706,-0.0871 -0.0797,-0.14641 -0.009,-0.0589 0.003,-0.11042 0.0356,-0.15487 0.0353,-0.0501 0.0811,-0.0797 0.13723,-0.0885 0.0561,-0.009 0.11359,0.006 0.17251,0.0444 0.0709,0.0501 0.14922,0.0914 0.23495,0.12382 0.0854,0.0325 0.19755,0.0487 0.33655,0.0487 0.13582,0 0.23742,-0.0272 0.3055,-0.0819 0.0677,-0.0547 0.10196,-0.12453 0.10196,-0.21025 0,-0.0649 -0.0229,-0.11818 -0.0688,-0.15946 -0.0459,-0.0413 -0.12488,-0.0755 -0.23671,-0.10195 -0.0385,-0.009 -0.0688,-0.0155 -0.091,-0.0198 -0.0222,-0.005 -0.0427,-0.009 -0.0621,-0.0134 -0.0191,-0.005 -0.0413,-0.01 -0.0663,-0.0155 -0.025,-0.006 -0.0582,-0.0148 -0.0995,-0.0264 -0.19509,-0.0505 -0.35066,-0.12842 -0.46743,-0.23495 -0.11642,-0.10619 -0.17498,-0.24942 -0.17498,-0.42933 0,-0.10937 0.0222,-0.20814 0.0667,-0.29669 0.0441,-0.0885 0.10548,-0.16404 0.18379,-0.22578 0.078,-0.0621 0.17039,-0.10936 0.27658,-0.14182 0.10654,-0.0325 0.22154,-0.0487 0.34537,-0.0487 0.13017,0 0.25471,0.019 0.3743,0.0575 0.11959,0.0385 0.21766,0.0885 0.29457,0.15064 0.0501,0.0413 0.0744,0.0924 0.073,0.15275 -10e-4,0.0607 -0.0183,0.11007 -0.0508,0.14817 -0.0356,0.0416 -0.0815,0.0642 -0.13723,0.0688 -0.0564,0.005 -0.11254,-0.008 -0.16827,-0.0377 -0.12736,-0.0737 -0.26282,-0.11077 -0.40746,-0.11077 -0.266,0 -0.39864,0.0917 -0.39864,0.27482 0,0.0589 0.0222,0.10759 0.0663,0.14605 0.0445,0.0384 0.12418,0.0723 0.23918,0.10195 l 0.34537,0.0797 c 0.41628,0.10336 0.62442,0.32596 0.62442,0.66851"
         style="fill:#4f4c4d;fill-opacity:1;fill-rule:nonzero;stroke:none;stroke-width:0.35277778"
         id="path132"
         inkscape:connector-curvature="0" />
      <path
         d="m 16.951663,155.75005 c 0,0.0413 -0.006,0.0744 -0.0176,0.0995 -0.012,0.0254 -0.0342,0.0494 -0.0667,0.0734 -0.0325,0.0205 -0.0766,0.0448 -0.13265,0.073 -0.0561,0.0279 -0.12347,0.0554 -0.20143,0.0818 -0.0783,0.0265 -0.16687,0.0487 -0.26565,0.0663 -0.0991,0.0176 -0.20602,0.0265 -0.32102,0.0265 -0.15064,0 -0.28293,-0.0191 -0.39653,-0.0575 -0.11359,-0.0381 -0.20813,-0.0921 -0.28328,-0.16157 -0.0755,-0.0692 -0.13229,-0.15064 -0.17074,-0.24342 -0.0381,-0.0931 -0.0575,-0.19403 -0.0575,-0.30339 0,-0.0974 0.018,-0.1905 0.0533,-0.27905 0.0353,-0.0885 0.0899,-0.16686 0.16368,-0.23459 0.0737,-0.0681 0.16687,-0.12171 0.27905,-0.16158 0.11219,-0.0399 0.24659,-0.06 0.40287,-0.06 0.10337,0 0.19721,0.007 0.28152,0.0201 0.084,0.013 0.1778,0.0317 0.28116,0.0554 v -0.14641 c 0,-0.15028 -0.0385,-0.25964 -0.11535,-0.32773 -0.0769,-0.0677 -0.20215,-0.1016 -0.37642,-0.1016 -0.0914,0 -0.17921,0.0102 -0.26352,0.031 -0.084,0.0205 -0.15699,0.0427 -0.21908,0.0663 -0.0974,0.0325 -0.17568,0.0282 -0.23459,-0.0134 -0.0593,-0.0413 -0.0885,-0.096 -0.0885,-0.16368 0,-0.0385 0.0109,-0.0776 0.0332,-0.11748 0.0222,-0.0399 0.0628,-0.073 0.12171,-0.0995 0.0649,-0.0325 0.16016,-0.0628 0.28575,-0.091 0.12523,-0.0279 0.25611,-0.042 0.39193,-0.042 0.28328,0 0.50695,0.0688 0.67063,0.20602 0.16405,0.13723 0.24589,0.3549 0.24589,0.65299 z m -0.96555,0.009 c 0.15346,0 0.27164,-0.0183 0.35454,-0.0554 0.0826,-0.0367 0.13547,-0.0642 0.15945,-0.0818 v -0.49142 c -0.0977,-0.0236 -0.18626,-0.0423 -0.26599,-0.0554 -0.0797,-0.0134 -0.16969,-0.0201 -0.26987,-0.0201 -0.13582,0 -0.2473,0.0289 -0.33444,0.0864 -0.0871,0.0575 -0.13053,0.13934 -0.13053,0.24588 0,0.121 0.0413,0.21308 0.12383,0.27658 0.0825,0.0635 0.2039,0.0952 0.36301,0.0952"
         style="fill:#4f4c4d;fill-opacity:1;fill-rule:nonzero;stroke:none;stroke-width:0.35277778"
         id="path136"
         inkscape:connector-curvature="0" />
      <path
         d="m 19.573043,155.90499 c 0,0.0681 -0.0222,0.12488 -0.0663,0.17039 -0.0445,0.0459 -0.10054,0.0688 -0.16828,0.0688 -0.0621,0 -0.11677,-0.0229 -0.16404,-0.0688 -0.0473,-0.0455 -0.0709,-0.1023 -0.0709,-0.17039 v -1.20897 c 0,-0.0885 -0.0138,-0.16439 -0.042,-0.22789 -0.0279,-0.0635 -0.0656,-0.11571 -0.11289,-0.15734 -0.0473,-0.0413 -0.10195,-0.0716 -0.16369,-0.0907 -0.0621,-0.0194 -0.127,-0.0289 -0.19508,-0.0289 -0.10901,0 -0.21167,0.0127 -0.30762,0.0377 -0.096,0.025 -0.16898,0.054 -0.21908,0.0864 v 1.58962 c 0,0.0681 -0.0222,0.12488 -0.0667,0.17039 -0.0441,0.0459 -0.10019,0.0688 -0.16828,0.0688 -0.0617,0 -0.11642,-0.0229 -0.16369,-0.0688 -0.0473,-0.0455 -0.0709,-0.1023 -0.0709,-0.17039 v -1.74025 c 0,-0.0473 0.007,-0.0833 0.0222,-0.10866 0.0148,-0.025 0.0381,-0.0494 0.0709,-0.073 0.0325,-0.0236 0.0765,-0.0494 0.13264,-0.0773 0.0561,-0.0282 0.12242,-0.0547 0.19932,-0.0797 0.0769,-0.025 0.16475,-0.0459 0.26353,-0.0621 0.0988,-0.0162 0.20602,-0.0243 0.32102,-0.0243 0.32174,0 0.56374,0.0804 0.72637,0.2413 0.16228,0.16087 0.24342,0.39194 0.24342,0.69286 z"
         style="fill:#4f4c4d;fill-opacity:1;fill-rule:nonzero;stroke:none;stroke-width:0.35277778"
         id="path140"
         inkscape:connector-curvature="0" />
      <path
         d="m 20.153153,154.62966 c 0.0236,-0.27728 0.11571,-0.4953 0.27693,-0.65299 0.16051,-0.15805 0.38453,-0.23707 0.67063,-0.23707 0.10654,0 0.21131,0.0134 0.31433,0.0399 0.10336,0.0265 0.19191,0.0561 0.26599,0.0885 v -0.66428 c 0,-0.0677 0.0226,-0.12453 0.0684,-0.17039 0.0459,-0.0459 0.101249,-0.0688 0.166159,-0.0688 0.0677,0 0.12382,0.0229 0.16827,0.0688 0.0441,0.0459 0.0663,0.10266 0.0663,0.17039 v 2.51531 c 0,0.0413 -0.005,0.0751 -0.0155,0.10195 -0.01021,0.0265 -0.0332,0.0515 -0.0684,0.0751 -0.0296,0.0208 -0.0734,0.0466 -0.130878,0.0776 -0.0575,0.031 -0.12523,0.0614 -0.20355,0.0907 -0.0783,0.0296 -0.16616,0.0547 -0.26352,0.0751 -0.0974,0.0208 -0.19932,0.031 -0.30551,0.031 -0.15064,0 -0.28504,-0.0219 -0.40287,-0.0663 -0.11818,-0.0441 -0.22084,-0.10619 -0.30798,-0.18591 -0.0871,-0.0797 -0.155571,-0.17569 -0.20567,-0.28787 -0.0504,-0.11218 -0.0815,-0.23601 -0.0931,-0.37183 -0.003,-0.0385 -0.005,-0.0857 -0.007,-0.14181 -0.001,-0.0561 -0.002,-0.1136 -0.002,-0.17287 0,-0.0589 7.14e-4,-0.11571 0.002,-0.17039 10e-4,-0.0547 0.004,-0.10266 0.007,-0.14393 m 0.46955,0.57115 c 0.0265,0.34537 0.20955,0.51823 0.54892,0.51823 0.0473,0 0.096,-0.005 0.14605,-0.0155 0.0505,-0.0102 0.0991,-0.0236 0.1464,-0.0399 0.0469,-0.0162 0.0889,-0.0332 0.12594,-0.0508 0.0371,-0.0176 0.067,-0.0356 0.091,-0.0533 v -1.23119 c -0.0473,-0.0293 -0.12136,-0.0596 -0.22154,-0.0907 -0.10055,-0.031 -0.20814,-0.0466 -0.32315,-0.0466 -0.16827,0 -0.29386,0.0416 -0.37641,0.12418 -0.0829,0.0825 -0.12841,0.20531 -0.13723,0.36759 -0.003,0.0293 -0.005,0.067 -0.007,0.11289 -0.002,0.0459 -0.002,0.0928 -0.002,0.14146 0,0.049 7.14e-4,0.0963 0.002,0.14182 0.001,0.0459 0.004,0.0864 0.007,0.12171"
         style="fill:#4f4c4d;fill-opacity:1;fill-rule:nonzero;stroke:none;stroke-width:0.35277778"
         id="path144"
         inkscape:connector-curvature="0" />
      <path
         d="m 3.7180834,158.09951 c 0,-0.0677 0.023601,-0.12524 0.0709,-0.17251 0.0473,-0.0473 0.10336,-0.0709 0.16827,-0.0709 0.0677,0 0.1245298,0.0236 0.1703898,0.0709 0.0459,0.0473 0.0688,0.10478 0.0688,0.17251 v 2.41335 h 1.3416101 c 0.0621,0 0.11748,0.0229 0.16616,0.0688 0.0487,0.0455 0.073,0.10125 0.073,0.16581 0,0.0681 -0.0229,0.12418 -0.0688,0.16827 -0.0459,0.0445 -0.10266,0.0667 -0.17039,0.0667 H 4.0369534 c -0.10336,0 -0.18239,-0.031 -0.2370701,-0.0931 -0.0547,-0.0621 -0.0818,-0.13723 -0.0818,-0.22578 z"
         style="fill:#4f4c4d;fill-opacity:1;fill-rule:nonzero;stroke:none;stroke-width:0.35277778"
         id="path148"
         inkscape:connector-curvature="0" />
      <path
         d="m 7.0015633,158.59548 c 0.14217,0 0.27376,0.0215 0.39511,0.0642 0.12136,0.0427 0.22684,0.10336 0.31715,0.18168 0.0903,0.0783 0.16263,0.1718 0.21766,0.28116 0.0547,0.10901 0.0864,0.23001 0.0952,0.36301 0.003,0.0444 0.005,0.0938 0.007,0.14816 10e-4,0.055 0.002,0.11007 0.002,0.16616 0,0.0561 -6.88e-4,0.11219 -0.002,0.16828 -0.002,0.0561 -0.004,0.10654 -0.007,0.15063 -0.009,0.12983 -0.0406,0.25012 -0.0952,0.3609 -0.055,0.11077 -0.12735,0.20672 -0.21766,0.28786 -0.0903,0.0811 -0.19579,0.14464 -0.31715,0.1905 -0.12135,0.0455 -0.25294,0.0684 -0.39511,0.0684 -0.13899,0 -0.26917,-0.0229 -0.39052,-0.0684 -0.12136,-0.0459 -0.22719,-0.10936 -0.31715,-0.1905 -0.0903,-0.0811 -0.16369,-0.17709 -0.21978,-0.28786 -0.0561,-0.11078 -0.0889,-0.23107 -0.0977,-0.3609 -0.003,-0.0441 -0.005,-0.0945 -0.007,-0.15063 -0.001,-0.0561 -0.002,-0.11219 -0.002,-0.16828 0,-0.0561 6.87e-4,-0.11112 0.002,-0.16616 0.002,-0.0543 0.004,-0.10371 0.007,-0.14816 0.009,-0.133 0.0416,-0.254 0.0977,-0.36301 0.0561,-0.10936 0.12947,-0.20285 0.21978,-0.28116 0.09,-0.0783 0.19579,-0.139 0.31715,-0.18168 0.12135,-0.0427 0.25153,-0.0642 0.39052,-0.0642 m -0.002,0.45156 c -0.16545,0 -0.29598,0.0466 -0.39193,0.1397 -0.096,0.0928 -0.14993,0.21307 -0.16157,0.36089 -0.003,0.0353 -0.005,0.0751 -0.007,0.11959 -0.001,0.0441 -0.002,0.09 -0.002,0.13723 0,0.0473 6.88e-4,0.0938 0.002,0.13935 0.001,0.0459 0.004,0.085 0.007,0.11747 0.0145,0.15663 0.0709,0.28117 0.16827,0.3743 0.0974,0.0928 0.22578,0.13935 0.38523,0.13935 0.15946,0 0.28858,-0.0466 0.38735,-0.13935 0.0988,-0.0931 0.15558,-0.21767 0.17039,-0.3743 0.003,-0.0325 0.005,-0.0716 0.005,-0.11747 v -0.13935 c 0,-0.0473 -6.88e-4,-0.0931 -0.002,-0.13723 -0.002,-0.0445 -0.002,-0.0843 -0.002,-0.11959 -0.009,-0.14782 -0.0617,-0.26811 -0.1591,-0.36089 -0.0977,-0.0931 -0.23036,-0.1397 -0.39864,-0.1397"
         style="fill:#4f4c4d;fill-opacity:1;fill-rule:nonzero;stroke:none;stroke-width:0.35277778"
         id="path152"
         inkscape:connector-curvature="0" />
      <path
         d="m 10.515333,160.83174 c 0,0.1711 -0.0282,0.31962 -0.0843,0.44485 -0.0561,0.12559 -0.13124,0.22966 -0.22578,0.31221 -0.0945,0.0829 -0.2067297,0.14464 -0.3365497,0.18627 -0.12982,0.0413 -0.26705,0.0617 -0.41169,0.0617 -0.14464,0 -0.27693,-0.0183 -0.39653,-0.055 -0.11959,-0.037 -0.21766,-0.0804 -0.29421,-0.13088 -0.0533,-0.0325 -0.0991,-0.0709 -0.13723,-0.11501 -0.0385,-0.0445 -0.0575,-0.0945 -0.0575,-0.15063 0,-0.0501 0.0176,-0.0967 0.0529,-0.13935 0.0353,-0.043 0.0914,-0.0642 0.16828,-0.0642 0.0533,0 0.10336,0.0109 0.15063,0.0332 0.0473,0.0222 0.0952,0.0473 0.14394,0.0751 0.0487,0.0282 0.10195,0.0533 0.15945,0.0755 0.0575,0.0219 0.12594,0.0332 0.20567,0.0332 0.0769,0 0.15134,-0.0113 0.22366,-0.0332 0.0723,-0.0222 0.13582,-0.0561 0.1905,-0.10195 0.0547,-0.0459 0.0988,-0.10195 0.13265,-0.16828 0.0342,-0.0663 0.0512,-0.14393 0.0512,-0.23248 v -0.0445 c -0.0769,0.0356 -0.1668558,0.0674 -0.2702258,0.0952 -0.10336,0.0282 -0.21555,0.0423 -0.33655,0.0423 -0.13864,0 -0.26352,-0.0215 -0.37394,-0.0642 -0.11078,-0.043 -0.20603,-0.10266 -0.28575,-0.17956 -0.0797,-0.0765 -0.14253,-0.16969 -0.18803,-0.27905 -0.0459,-0.10901 -0.0734,-0.2286 -0.0822,-0.35842 -0.003,-0.0296 -0.005,-0.0681 -0.007,-0.11536 -10e-4,-0.0473 -0.002,-0.0974 -0.002,-0.15064 0,-0.0529 7.15e-4,-0.10548 0.002,-0.15698 0.002,-0.0519 0.004,-0.0998 0.007,-0.14393 0.0116,-0.133 0.0413,-0.25542 0.0885,-0.3676 0.0473,-0.11218 0.11289,-0.20814 0.1972,-0.28787 0.084,-0.0797 0.18521,-0.14252 0.30339,-0.18803 0.11783,-0.0459 0.25365,-0.0688 0.40746,-0.0688 0.10618,0 0.20708,0.01 0.30303,0.0289 0.096,0.019 0.1838,0.0434 0.2635258,0.073 0.0797,0.0296 0.14922,0.0596 0.20814,0.0907 0.0589,0.031 0.10477,0.0568 0.13723,0.0776 0.0413,0.0265 0.0674,0.0529 0.0776,0.0797 0.0102,0.0265 0.0155,0.0603 0.0155,0.1016 z m -0.9874197,-1.7847 c -0.0945,0 -0.17498,0.0134 -0.2413,0.0399 -0.0667,0.0268 -0.12136,0.0628 -0.16405,0.10866 -0.0427,0.0459 -0.0751,0.0995 -0.0974,0.16157 -0.0222,0.0621 -0.0363,0.12982 -0.042,0.2039 -0.006,0.0561 -0.009,0.12912 -0.009,0.21908 0,0.09 0.003,0.16898 0.009,0.23671 0.0116,0.15664 0.0568,0.28081 0.13511,0.37218 0.078,0.0914 0.20884,0.13723 0.39194,0.13723 0.12982,0 0.24341,-0.019 0.34078,-0.0575 0.0974,-0.0385 0.1622797,-0.0723 0.1947297,-0.10195 v -1.18216 c -0.006,-0.003 -0.0229,-0.0127 -0.0508,-0.0289 -0.0282,-0.0162 -0.0649,-0.0318 -0.11077,-0.0466 -0.0459,-0.0148 -0.0988,-0.0286 -0.15945,-0.042 -0.0603,-0.0134 -0.12595,-0.0201 -0.19685,-0.0201"
         style="fill:#4f4c4d;fill-opacity:1;fill-rule:nonzero;stroke:none;stroke-width:0.35277778"
         id="path156"
         inkscape:connector-curvature="0" />
      <path
         d="m 11.719753,158.05083 c 0,0.0737 -0.025,0.13723 -0.0751,0.1905 -0.0504,0.0529 -0.11254,0.0797 -0.18627,0.0797 -0.0765,0 -0.14005,-0.0268 -0.19015,-0.0797 -0.0504,-0.0533 -0.0755,-0.11677 -0.0755,-0.1905 0,-0.0737 0.0251,-0.13582 0.0755,-0.18591 0.0501,-0.0501 0.1136,-0.0755 0.19015,-0.0755 0.0737,0 0.13582,0.0254 0.18627,0.0755 0.0501,0.0501 0.0751,0.11218 0.0751,0.18591 m -0.26141,0.57573 c 0.0649,0 0.1203,0.0229 0.16616,0.0684 0.0459,0.0459 0.0688,0.10266 0.0688,0.17075 v 1.89512 c 0,0.0681 -0.0222,0.12488 -0.0667,0.17039 -0.0441,0.0459 -0.10019,0.0688 -0.16828,0.0688 -0.0617,0 -0.11641,-0.0229 -0.16369,-0.0688 -0.0473,-0.0455 -0.0709,-0.10231 -0.0709,-0.17039 v -1.89512 c 0,-0.0681 0.0222,-0.12489 0.0663,-0.17075 0.0444,-0.0455 0.10054,-0.0684 0.16827,-0.0684"
         style="fill:#4f4c4d;fill-opacity:1;fill-rule:nonzero;stroke:none;stroke-width:0.35277778"
         id="path160"
         inkscape:connector-curvature="0" />
      <path
         d="m 14.035773,160.29594 c 0,0.11218 -0.0222,0.21343 -0.0663,0.30339 -0.0445,0.09 -0.10619,0.16686 -0.18627,0.23036 -0.0794,0.0635 -0.17392,0.11219 -0.28328,0.14605 -0.10936,0.0339 -0.22719,0.0508 -0.35419,0.0508 -0.18591,0 -0.34537,-0.0229 -0.47836,-0.0684 -0.13265,-0.0459 -0.24483,-0.10724 -0.33655,-0.18379 -0.0441,-0.0385 -0.0709,-0.0871 -0.0797,-0.14641 -0.009,-0.0589 0.003,-0.11042 0.0356,-0.15487 0.0353,-0.0501 0.0811,-0.0797 0.13723,-0.0885 0.0561,-0.009 0.11359,0.006 0.17251,0.0445 0.0709,0.0501 0.14922,0.0914 0.23495,0.12382 0.0854,0.0325 0.19755,0.0487 0.33655,0.0487 0.13582,0 0.23742,-0.0272 0.3055,-0.0819 0.0677,-0.0547 0.10196,-0.12453 0.10196,-0.21025 0,-0.0649 -0.0229,-0.11818 -0.0688,-0.15946 -0.0459,-0.0413 -0.12488,-0.0755 -0.23706,-0.10195 -0.0381,-0.009 -0.0684,-0.0155 -0.0907,-0.0201 -0.0222,-0.004 -0.0427,-0.009 -0.0621,-0.0131 -0.019,-0.005 -0.0413,-0.01 -0.0663,-0.0155 -0.025,-0.006 -0.0582,-0.0148 -0.0995,-0.0265 -0.19509,-0.0504 -0.35066,-0.12842 -0.46743,-0.23495 -0.11642,-0.10619 -0.17498,-0.24942 -0.17498,-0.42933 0,-0.10937 0.0222,-0.20814 0.0667,-0.29669 0.0441,-0.0885 0.10548,-0.16404 0.18379,-0.22578 0.078,-0.0621 0.17039,-0.10936 0.27658,-0.14182 0.10654,-0.0325 0.22154,-0.0487 0.34537,-0.0487 0.13017,0 0.25471,0.019 0.3743,0.0575 0.11959,0.0385 0.21766,0.0885 0.29457,0.15064 0.0501,0.0413 0.0744,0.0924 0.073,0.15275 -10e-4,0.0607 -0.0183,0.11007 -0.0508,0.14817 -0.0356,0.0416 -0.0815,0.0642 -0.13758,0.0688 -0.0561,0.005 -0.11219,-0.008 -0.16828,-0.0378 -0.127,-0.0737 -0.26246,-0.11077 -0.4071,-0.11077 -0.266,0 -0.39864,0.0917 -0.39864,0.27482 0,0.0589 0.0222,0.10759 0.0663,0.14605 0.0444,0.0385 0.12418,0.0723 0.23918,0.10195 l 0.34537,0.0797 c 0.41628,0.10336 0.62442,0.32596 0.62442,0.66851"
         style="fill:#4f4c4d;fill-opacity:1;fill-rule:nonzero;stroke:none;stroke-width:0.35277778"
         id="path164"
         inkscape:connector-curvature="0" />
      <path
         d="m 15.749393,160.94248 c -0.0681,0.0296 -0.14605,0.0508 -0.2346,0.0642 -0.0885,0.0134 -0.17568,0.0197 -0.26141,0.0197 -0.127,0 -0.23636,-0.0205 -0.32773,-0.0617 -0.0914,-0.0413 -0.16757,-0.0977 -0.22789,-0.16827 -0.0607,-0.0709 -0.10583,-0.15522 -0.13511,-0.25259 -0.0296,-0.0974 -0.0445,-0.20214 -0.0445,-0.31432 v -1.85103 c 0,-0.0677 0.0222,-0.12453 0.0667,-0.17039 0.0441,-0.0459 0.10019,-0.0688 0.16828,-0.0688 0.0649,0 0.12029,0.0229 0.1658,0.0688 0.0459,0.0459 0.0688,0.10266 0.0688,0.17039 v 0.33655 h 0.61101 c 0.0593,0 0.11078,0.0201 0.15523,0.0596 0.0441,0.0402 0.0663,0.0896 0.0663,0.14852 0,0.0593 -0.0222,0.10866 -0.0663,0.14817 -0.0445,0.0402 -0.096,0.06 -0.15523,0.06 h -0.61101 v 1.10278 c 0,0.11219 0.0251,0.19826 0.0751,0.25894 0.0505,0.0607 0.13018,0.0907 0.23919,0.0907 0.0593,0 0.1143,-0.007 0.16616,-0.0222 0.0515,-0.0145 0.10265,-0.0293 0.15275,-0.0441 0.0441,-0.0116 0.0847,-0.0134 0.12171,-0.005 0.037,0.009 0.067,0.0229 0.0907,0.0423 0.0236,0.019 0.0423,0.0441 0.0554,0.0751 0.0134,0.0311 0.0201,0.0628 0.0201,0.0953 0,0.0441 -0.012,0.0857 -0.0353,0.12383 -0.024,0.0384 -0.0653,0.0695 -0.12418,0.0931"
         style="fill:#4f4c4d;fill-opacity:1;fill-rule:nonzero;stroke:none;stroke-width:0.35277778"
         id="path168"
         inkscape:connector-curvature="0" />
      <path
         d="m 16.860893,158.05083 c 0,0.0737 -0.025,0.13723 -0.0751,0.1905 -0.0505,0.0529 -0.11254,0.0797 -0.18627,0.0797 -0.0765,0 -0.14005,-0.0268 -0.19015,-0.0797 -0.0504,-0.0533 -0.0755,-0.11677 -0.0755,-0.1905 0,-0.0737 0.0251,-0.13582 0.0755,-0.18591 0.0501,-0.0501 0.1136,-0.0755 0.19015,-0.0755 0.0737,0 0.13582,0.0254 0.18627,0.0755 0.0501,0.0501 0.0751,0.11218 0.0751,0.18591 m -0.26141,0.57573 c 0.0649,0 0.1203,0.0229 0.16616,0.0684 0.0459,0.0459 0.0688,0.10266 0.0688,0.17075 v 1.89512 c 0,0.0681 -0.0222,0.12488 -0.0667,0.17039 -0.0441,0.0459 -0.10019,0.0688 -0.16828,0.0688 -0.0617,0 -0.11641,-0.0229 -0.16369,-0.0688 -0.0473,-0.0455 -0.0709,-0.10231 -0.0709,-0.17039 v -1.89512 c 0,-0.0681 0.0222,-0.12489 0.0663,-0.17075 0.0444,-0.0455 0.10054,-0.0684 0.16827,-0.0684"
         style="fill:#4f4c4d;fill-opacity:1;fill-rule:nonzero;stroke:none;stroke-width:0.35277778"
         id="path172"
         inkscape:connector-curvature="0" />
      <path
         d="m 18.494853,160.57496 c 0.10619,0 0.20532,-0.025 0.29669,-0.0755 0.0914,-0.0501 0.16227,-0.13124 0.21272,-0.24342 0.0413,-0.0854 0.10901,-0.12841 0.20355,-0.12841 0.0649,0 0.11818,0.0229 0.15946,0.0688 0.0413,0.0459 0.0621,0.10266 0.0621,0.17039 0,0.0561 -0.0201,0.12171 -0.06,0.1972 -0.0399,0.0752 -0.0988,0.14746 -0.1771,0.21696 -0.0783,0.0692 -0.17639,0.12771 -0.29457,0.17463 -0.11783,0.0473 -0.25541,0.0709 -0.41169,0.0709 -0.14464,0 -0.27764,-0.0236 -0.39864,-0.0709 -0.121,-0.0469 -0.22578,-0.11219 -0.31432,-0.19474 -0.0885,-0.0825 -0.16016,-0.17921 -0.21484,-0.28998 -0.0547,-0.11077 -0.0864,-0.22966 -0.0953,-0.3563 -0.003,-0.0445 -0.005,-0.0938 -0.007,-0.14852 -10e-4,-0.0547 -0.002,-0.11007 -0.002,-0.16616 0,-0.0561 6.88e-4,-0.11148 0.002,-0.16616 0.002,-0.0543 0.004,-0.10372 0.007,-0.14817 0.009,-0.13299 0.0406,-0.254 0.0953,-0.36301 0.0547,-0.10936 0.127,-0.2032 0.21695,-0.28116 0.09,-0.0783 0.1958,-0.13899 0.3168,-0.18168 0.121,-0.0427 0.25223,-0.0642 0.39405,-0.0642 0.15628,0 0.29281,0.0243 0.40958,0.073 0.11676,0.0487 0.21413,0.10689 0.29245,0.17498 0.078,0.0681 0.13617,0.13934 0.17462,0.21484 0.0385,0.0751 0.0575,0.14076 0.0575,0.19685 0,0.0681 -0.0198,0.12488 -0.0596,0.17074 -0.0399,0.0455 -0.0938,0.0684 -0.16158,0.0684 -0.0917,0 -0.15804,-0.0427 -0.19932,-0.12841 -0.0501,-0.11218 -0.12029,-0.19332 -0.21025,-0.24342 -0.0903,-0.0504 -0.18838,-0.0755 -0.29457,-0.0755 -0.16827,0 -0.30057,0.0437 -0.39617,0.13088 -0.096,0.0871 -0.15134,0.20567 -0.16616,0.35631 -0.003,0.0296 -0.005,0.0674 -0.007,0.11288 -10e-4,0.0459 -0.002,0.0938 -0.002,0.14394 0,0.0505 7.14e-4,0.0991 0.002,0.14605 0.001,0.0473 0.004,0.0885 0.007,0.12418 0.0148,0.15063 0.0688,0.27375 0.16157,0.36971 0.0931,0.0959 0.22649,0.14393 0.40076,0.14393"
         style="fill:#4f4c4d;fill-opacity:1;fill-rule:nonzero;stroke:none;stroke-width:0.35277778"
         id="path176"
         inkscape:connector-curvature="0" />
      <path
         d="m 21.607933,160.29594 c 0,0.11218 -0.0222,0.21343 -0.0663,0.30339 -0.0444,0.09 -0.10654,0.16686 -0.18627,0.23036 -0.0794,0.0635 -0.17392,0.11219 -0.28328,0.14605 -0.10936,0.0339 -0.22719,0.0508 -0.35419,0.0508 -0.18591,0 -0.34537,-0.0229 -0.47836,-0.0684 -0.13265,-0.0459 -0.24483,-0.10724 -0.33655,-0.18379 -0.0441,-0.0385 -0.0709,-0.0871 -0.0797,-0.14641 -0.009,-0.0589 0.003,-0.11042 0.0356,-0.15487 0.0353,-0.0501 0.0811,-0.0797 0.13723,-0.0885 0.0561,-0.009 0.11359,0.006 0.17251,0.0445 0.0709,0.0501 0.14922,0.0914 0.23495,0.12382 0.0854,0.0325 0.19755,0.0487 0.33655,0.0487 0.13582,0 0.23742,-0.0272 0.3055,-0.0819 0.0677,-0.0547 0.10196,-0.12453 0.10196,-0.21025 0,-0.0649 -0.0229,-0.11818 -0.0688,-0.15946 -0.0459,-0.0413 -0.12488,-0.0755 -0.23671,-0.10195 -0.0385,-0.009 -0.0688,-0.0155 -0.091,-0.0201 -0.0222,-0.004 -0.0427,-0.009 -0.0621,-0.0131 -0.019,-0.005 -0.0413,-0.01 -0.0663,-0.0155 -0.025,-0.006 -0.0582,-0.0148 -0.0995,-0.0265 -0.19509,-0.0504 -0.35066,-0.12842 -0.46743,-0.23495 -0.11642,-0.10619 -0.17498,-0.24942 -0.17498,-0.42933 0,-0.10937 0.0222,-0.20814 0.0667,-0.29669 0.0441,-0.0885 0.10548,-0.16404 0.18379,-0.22578 0.078,-0.0621 0.17039,-0.10936 0.27658,-0.14182 0.10654,-0.0325 0.22154,-0.0487 0.34537,-0.0487 0.13017,0 0.25471,0.019 0.3743,0.0575 0.11959,0.0385 0.21766,0.0885 0.29457,0.15064 0.0501,0.0413 0.0744,0.0924 0.073,0.15275 -0.001,0.0607 -0.0183,0.11007 -0.0508,0.14817 -0.0356,0.0416 -0.0815,0.0642 -0.13758,0.0688 -0.0561,0.005 -0.11219,-0.008 -0.16828,-0.0378 -0.127,-0.0737 -0.26246,-0.11077 -0.4071,-0.11077 -0.266,0 -0.39864,0.0917 -0.39864,0.27482 0,0.0589 0.0222,0.10759 0.0663,0.14605 0.0445,0.0385 0.12418,0.0723 0.23918,0.10195 l 0.34537,0.0797 c 0.41628,0.10336 0.62442,0.32596 0.62442,0.66851"
         style="fill:#4f4c4d;fill-opacity:1;fill-rule:nonzero;stroke:none;stroke-width:0.35277778"
         id="path180"
         inkscape:connector-curvature="0" />
      <path
         d="m 28.674503,138.86526 c -0.484359,0 -0.853019,0.387 -0.853019,0.86783 v 6.87388 c 0,0.48189 0.402519,0.86995 0.853019,0.86995 0.480841,0 0.851609,-0.38806 0.851609,-0.86995 v -6.87388 c 0,-0.48083 -0.384889,-0.86783 -0.851609,-0.86783 m -29.9187298,7.18044 c -1.1394699,0 -1.7652999,-0.4819 -1.7652999,-1.34902 0,-0.77223 0.70767,-1.20827 1.68487,-1.20827 0.72530999,0 1.23930989,0.0988 1.94485999,0.27552 v 1.784 c -0.1601599,0.12735 -0.75424,0.49777 -1.86443009,0.49777 m 0.17956,-7.32437 c -0.9803699,0 -1.9921299,0.25505 -2.4595599,0.47907 -0.43286,0.19473 -0.56198,0.51435 -0.56198,0.78952 0,0.3944 0.29246,0.70908 0.76694,0.70908 0.12383,0 0.26,-0.0212 0.40675,-0.0684 0.4498,-0.15981 1.09256,-0.35207 1.75013,-0.35207 1.25307009,0 1.78258999,0.46531 1.78258999,1.55786 v 0.52811 c -0.7397699,-0.17533 -1.2851699,-0.27093 -2.04010999,-0.27093 -2.17241,0 -3.19088,1.18498 -3.25755,2.52377 v 0.29457 c 0.0695,1.49966 1.16028,2.62855 3.2893,2.62855 1.67075009,0 2.8913601,-0.59584 3.3422101,-0.89923 0.2416601,-0.16475 0.3044499,-0.33761 0.3044499,-0.62724 v -4.1776 c 0,-2.16923 -1.26964991,-3.11502 -3.3231701,-3.11502 m 15.9300398,7.32437 c -1.14053,0 -1.76707,-0.4819 -1.76707,-1.34902 0,-0.77223 0.70415,-1.20827 1.68487,-1.20827 0.72355,0 1.23825,0.0988 1.94627,0.27552 v 1.784 c -0.16121,0.12735 -0.756,0.49777 -1.86407,0.49777 m 0.17568,-7.32437 c -0.97896,0 -1.99108,0.25505 -2.45745,0.47907 -0.43251,0.19473 -0.56303,0.51435 -0.56303,0.78952 0,0.3944 0.29421,0.70908 0.76905,0.70908 0.12383,0 0.26,-0.0212 0.4064,-0.0684 0.44874,-0.15981 1.0915,-0.35207 1.75013,-0.35207 1.2506,0 1.78329,0.46531 1.78329,1.55786 v 0.52811 c -0.73977,-0.17533 -1.28763,-0.27093 -2.04152,-0.27093 -2.2479,0 -3.26002,1.2707 -3.26002,2.66629 0,1.57586 1.09044,2.7806 3.29212,2.7806 1.67005,0 2.89137,-0.59584 3.34187,-0.89923 0.24024,-0.16475 0.30515,-0.33761 0.30515,-0.62724 v -4.1776 c 0,-2.16923 -1.26859,-3.11502 -3.32599,-3.11502 m 8.126241,0 c -1.685581,0 -2.859971,0.52916 -3.324231,0.88018 -0.24095,0.16298 -0.34008,0.32385 -0.34008,0.65969 v 6.31261 c 0,0.4833 0.40323,0.87101 0.85478,0.87101 0.47943,0 0.85126,-0.38771 0.85126,-0.87101 v -5.76474 c 0.36653,-0.22614 1.12218,-0.45085 1.908881,-0.45085 0.997649,0 1.86549,0.5468 1.86549,1.83091 v 4.38468 c 0,0.4833 0.40005,0.87101 0.851249,0.87101 0.498121,0 0.851601,-0.38771 0.851601,-0.87101 v -4.46476 c 0,-2.16852 -1.19062,-3.38772 -3.51895,-3.38772 m -16.2020307,7.17832 c -1.2386,0 -1.8958298,-0.64453 -1.9945998,-1.8796 -0.0445,-0.49883 -0.0317,-1.44427 0,-1.8789 0.0677,-1.17192 0.6452298,-1.78293 1.8658398,-1.78293 0.83608,0 1.64006,0.28786 1.97379,0.49988 v 4.46229 c -0.31962,0.24341 -1.15464,0.57926 -1.84503,0.57926 m 2.69805,-9.99173 c -0.46497,0 -0.85302,0.38735 -0.85302,0.86784 v 2.40771 c -0.52776,-0.24025 -1.33033,-0.46214 -2.10256,-0.46214 -2.0700998,0 -3.2596599,1.23437 -3.4374599,3.22791 -0.048,0.57891 -0.048,1.71733 0,2.27965 0.1778,1.97626 1.4943601,3.31153 3.6621799,3.31153 1.55822,0 2.85891,-0.6918 3.2769597,-1.00048 0.25717,-0.17321 0.30656,-0.35242 0.30656,-0.64029 v -9.12389 c 0,-0.48049 -0.37148,-0.86784 -0.8526597,-0.86784 M 28.674503,135.83 c -0.561969,0 -0.96485,0.41769 -0.96485,0.94756 0,0.53058 0.402881,0.98108 0.96485,0.98108 0.529521,0 0.94932,-0.4505 0.94932,-0.98108 0,-0.52987 -0.419799,-0.94756 -0.94932,-0.94756"
         style="fill:#a0148c;fill-opacity:1;fill-rule:nonzero;stroke:none;stroke-width:0.35277778"
         id="path184"
         inkscape:connector-curvature="0" />
      <path
         inkscape:connector-curvature="0"
         id="path216"
         style="fill:url(#linearGradient214);stroke:none;stroke-width:0.35277778"
         d="m 27.709512,136.77745 c 0,0.53058 0.402871,0.98107 0.96484,0.98107 v 0 c 0.529882,0 0.949683,-0.45049 0.949683,-0.98107 v 0 c 0,-0.52987 -0.419801,-0.94756 -0.949683,-0.94756 v 0 c -0.561969,0 -0.96484,0.41769 -0.96484,0.94756 m -18.8990087,-0.002 v 2.4077 c -0.52776,-0.24024 -1.33033,-0.46213 -2.10256,-0.46213 v 0 c -2.0704498,0 -3.2596698,1.23436 -3.4374698,3.22791 v 0 c -0.048,0.57891 -0.048,1.71768 0,2.27965 v 0 c 0.1778,1.97626 1.49402,3.31153 3.6618398,3.31153 v 0 c 1.55857,0 2.85891,-0.6918 3.2769497,-1.00048 v 0 c 0.25718,-0.17321 0.30656,-0.35243 0.30656,-0.64029 v 0 -9.12389 c 0,-0.48049 -0.37112,-0.86784 -0.8526597,-0.86784 v 0 c -0.46496,0 -0.85266,0.38735 -0.85266,0.86784 m -3.8399899,7.24429 c -0.0445,-0.49883 -0.0314,-1.44463 0,-1.8789 v 0 c 0.0677,-1.17192 0.6452299,-1.78294 1.8661999,-1.78294 v 0 c 0.83573,0 1.63971,0.28787 1.97379,0.49989 v 0 4.46229 c -0.31962,0.24341 -1.15464,0.57926 -1.84538,0.57926 v 0 c -1.23825,0 -1.8958298,-0.64453 -1.9946099,-1.8796 M 19.843273,139.6012 c -0.2413,0.16298 -0.34008,0.3242 -0.34008,0.65969 v 0 6.31261 c 0,0.4833 0.40287,0.871 0.85478,0.871 v 0 c 0.47943,0 0.8509,-0.3877 0.8509,-0.871 v 0 -5.76439 c 0.36654,-0.22649 1.122189,-0.45121 1.90924,-0.45121 v 0 c 0.997299,0 1.86513,0.54681 1.86513,1.83127 v 0 4.38433 c 0,0.4833 0.400399,0.871 0.851249,0.871 v 0 c 0.498131,0 0.851961,-0.3877 0.851961,-0.871 v 0 -4.46476 c 0,-2.16888 -1.190619,-3.38772 -3.51931,-3.38772 v 0 c -1.68522,0 -2.85962,0.52916 -3.32387,0.88018 m -7.25946,-0.40147 c -0.43251,0.19544 -0.56339,0.51471 -0.56339,0.78987 v 0 c 0,0.39441 0.29422,0.70909 0.76906,0.70909 v 0 c 0.12418,0 0.26035,-0.0212 0.40675,-0.0684 v 0 c 0.44838,-0.15981 1.09149,-0.35207 1.74978,-0.35207 v 0 c 1.2506,0 1.78364,0.46531 1.78364,1.55786 v 0 0.52811 c -0.73977,-0.17498 -1.28799,-0.27093 -2.04152,-0.27093 v 0 c -2.24826,0 -3.26002,1.2707 -3.26002,2.66629 v 0 c 0,1.57586 1.09043,2.7806 3.29177,2.7806 v 0 c 1.67005,0 2.89172,-0.59584 3.34186,-0.89923 v 0 c 0.24024,-0.1644 0.30515,-0.33761 0.30515,-0.62724 v 0 -4.1776 c 0,-2.16923 -1.26858,-3.11502 -3.32598,-3.11502 v 0 c -0.97861,0 -1.99108,0.25505 -2.4571,0.47871 m 0.51435,5.49664 c 0,-0.77259 0.7045,-1.20792 1.68522,-1.20792 v 0 c 0.72354,0 1.23825,0.0988 1.94627,0.27517 v 0 1.784 c -0.16122,0.12735 -0.75635,0.49777 -1.86408,0.49777 v 0 c -1.14088,0 -1.76741,-0.4819 -1.76741,-1.34902 m -16.6225397,-5.49664 c -0.43286,0.19544 -0.56197,0.51471 -0.56197,0.78987 v 0 c 0,0.39441 0.29245,0.70909 0.76694,0.70909 v 0 c 0.12382,0 0.25999,-0.0212 0.40675,-0.0684 v 0 c 0.44979,-0.15981 1.09255,-0.35207 1.7501301,-0.35207 v 0 c 1.25307009,0 1.78293999,0.46531 1.78293999,1.55786 v 0 0.52811 c -0.73978,-0.17498 -1.2855202,-0.27093 -2.04012009,-0.27093 v 0 c -2.1724,0 -3.19122,1.18498 -3.2579,2.52377 v 0 0.29457 c 0.0699,1.50001 1.16029,2.62855 3.28965,2.62855 v 0 c 1.67076019,0 2.8910201,-0.59584 3.3418701,-0.89923 v 0 c 0.2420001,-0.1644 0.3048,-0.33761 0.3048,-0.62724 v 0 -4.1776 c 0,-2.16923 -1.27000001,-3.11502 -3.3231701,-3.11502 v 0 c -0.98072,0 -1.99213,0.25505 -2.45992,0.47871 m 0.51471,5.49664 c 0,-0.77259 0.70802,-1.20792 1.68486,-1.20792 v 0 c 0.72530999,0 1.23965999,0.0988 1.94522009,0.27517 v 0 1.784 c -0.16016,0.12735 -0.7545901,0.49777 -1.86443009,0.49777 v 0 c -1.13983,0 -1.76565,-0.4819 -1.76565,-1.34902 m 30.8313597,-4.96359 v 6.87423 c 0,0.48189 0.402169,0.86995 0.852659,0.86995 v 0 c 0.48119,0 0.851612,-0.38806 0.851612,-0.86995 v 0 -6.87423 c 0,-0.48083 -0.384881,-0.86783 -0.851612,-0.86783 v 0 c -0.484359,0 -0.852659,0.387 -0.852659,0.86783" />
    </g>
  </g>
</svg>
